<?xml version="1.0" encoding="UTF-8" standalone="no"?>
<svg
   xmlns:dc="http://purl.org/dc/elements/1.1/"
   xmlns:cc="http://creativecommons.org/ns#"
   xmlns:rdf="http://www.w3.org/1999/02/22-rdf-syntax-ns#"
   xmlns:svg="http://www.w3.org/2000/svg"
   xmlns="http://www.w3.org/2000/svg"
   viewBox="0 0 336.37799 192.75587"
   height="192.75587"
   width="336.37799"
   xml:space="preserve"
   id="svg2"
   version="1.1"><metadata
     id="metadata8"><rdf:RDF><cc:Work
         rdf:about=""><dc:format>image/svg+xml</dc:format><dc:type
           rdf:resource="http://purl.org/dc/dcmitype/StillImage" /></cc:Work></rdf:RDF></metadata><defs
     id="defs6" /><g
     transform="matrix(1.3333333,0,0,-1.3333333,0,192.75587)"
     id="g10"><path
       id="path12"
       style="fill:#000000;fill-opacity:1;fill-rule:evenodd;stroke:none"
       d="m 170.8651,72.7455 c 0.5105,2.8174 6.1588,7.7102 8.2125,7.0693 0.4255,-0.9394 -0.2109,-1.6908 -1.0046,-2.529 -1.5846,-1.673 -5.0763,-4.2336 -7.2079,-4.5403 z m -53.5774,-0.0011 c 0.5417,3.2224 7.1238,8.1538 8.2366,6.9738 1.3457,-1.4276 -5.6055,-6.6257 -8.2366,-6.9738 z m 21.0362,4.9212 c -0.167,0.7892 5.6772,11.598 8.6644,12.2428 -0.4133,-3.0044 -7.4367,-11.944 -8.6644,-12.2428 z m 32.152,-7.7664 c 0.7821,0.6512 12.9827,3.7489 13.725,10.0097 0.624,5.2606 -9.8163,3.6831 -15.1976,-1.9646 -1.351,-1.4177 -3.0569,-3.7883 -3.7687,-6.0242 -0.3464,-1.0888 -0.233,-0.773 -0.4946,-0.8516 -0.4414,-0.1329 -0.9604,-0.6049 -1.3879,-0.9572 -1.6951,-1.3964 -3.8934,-3.2474 -6.446,-3.4546 -2.3723,-0.1925 -4.0124,0.9249 -3.5058,3.2593 0.098,0.4518 0.0612,0.3418 0.3577,0.5737 1.5137,1.1837 2.9551,2.3332 4.2715,3.6757 6.819,6.9545 1.8972,7.9412 -1.205,6.3907 -1.747,-0.8731 -3.2703,-2.3491 -4.3129,-3.5238 -1.0888,-1.2262 -2.291,-2.9477 -3.0362,-4.7959 -0.4504,-1.1177 -1.1648,-1.4525 -1.8867,-2.0307 -2.0424,-1.6356 -4.9791,-3.9895 -7.8438,-4.0451 -2.3457,-0.0453 -3.4466,2.1702 -3.1595,4.5511 0.2052,1.7039 0.536,1.8198 1.3924,2.6498 4.3027,4.1706 9.8785,9.6366 12.1442,15.3867 0.5723,1.4525 1.4995,4.7591 1.2393,6.5676 -0.4224,2.9322 -3.7227,-0.1069 -4.5173,-0.7481 -2.5376,-2.0468 -5.7617,-5.5581 -7.7576,-8.0268 -0.6046,-0.7475 -1.1919,-1.3757 -1.7705,-2.1498 -0.6335,-0.8476 -1.0664,-1.5239 -1.5721,-2.3355 -1.523,-2.4443 -2.7981,-5.4924 -3.4299,-8.439 -0.4252,-1.982 -0.1528,-1.391 -1.4735,-2.4528 -2.6453,-2.1271 -6.5905,-5.2753 -10.3371,-5.3456 -3.0024,-0.0564 -4.0422,1.0877 -3.6462,4.1355 1.4386,0.5312 2.9033,0.9887 4.2781,1.5894 1.406,0.6137 2.6382,1.1984 3.8582,1.9006 2.0668,1.19 4.9034,3.3313 5.5352,5.9819 0.997,4.1831 -4.3123,4.0139 -7.2462,3.212 -3.0143,-0.8241 -5.5786,-2.5529 -7.3312,-4.1908 -3.3069,-3.0897 -4.2503,-6.6894 -4.6318,-7.0047 -0.54,-0.4456 -1.1512,-0.7894 -1.6943,-1.1846 -0.5814,-0.4232 -1.076,-0.7809 -1.6903,-1.1945 -1.1038,-0.7438 -2.1305,-1.5338 -3.4617,-2.2943 -4.5742,-2.6136 -5.3677,0.3532 -3.7006,4.3908 1.6557,4.0099 3.1674,5.0043 4.3733,7.1175 2.8389,0.0046 5.0488,0.0083 6.4797,1.7348 0.7841,0.946 2.7116,4.1086 2.9171,5.2833 -0.6536,0.0053 -1.1372,0.0805 -1.7589,0.1173 -0.305,0.0182 -0.5969,0.0258 -0.9031,0.0561 l -0.4654,0.0774 c -0.0233,0.0068 -0.0641,0.0252 -0.0825,0.0312 l -0.1576,0.076 c 0.5431,0.9686 1.5548,1.7872 2.0185,3.0481 0.6245,1.6976 -1.6571,1.7061 -2.9199,1.4116 -3.0844,-0.7194 -4.2205,-4.4203 -5.0981,-4.7945 -2.9617,-0.1471 -5.0432,-0.2769 -6.7037,-1.9494 -0.7084,-0.7135 -3.1997,-4.1173 -3.3982,-5.0423 1.8811,0.2501 3.3112,0.2058 5.2725,0.1792 C 99.7999,77.0924 97.348,74.4267 96.446,73.5259 95.726,72.807 94.9354,72.0853 94.0966,71.3801 93.4254,70.816 92.0959,69.908 91.7172,69.4046 l 0.5704,-1.9483 c 0.913,0.4397 2.1316,1.8947 3.0072,2.1997 -0.0371,-0.5411 -0.9241,-2.6481 -1.1344,-3.5178 -1.0919,-4.5116 1.3371,-7.3309 6.3207,-5.2843 2.1745,0.8932 3.9988,2.1246 5.5945,3.3888 1.6704,1.3238 3.1898,2.8505 4.8614,4.1502 0.2044,-0.2973 0.4045,-2.5875 0.9133,-3.7258 0.5451,-1.2189 1.1262,-1.9514 1.9052,-2.5818 3.6833,-2.9807 9.9045,0.3421 13.0957,2.7031 1.0199,0.7546 1.6342,1.294 2.4877,2.0052 0.5891,0.491 1.8956,1.9369 2.3477,2.1521 0.1411,-2.5285 0.2707,-4.7067 1.6778,-6.266 1.3927,-1.5432 3.5359,-1.7538 5.9811,-0.94 3.9626,1.3193 6.7039,4.5354 9.095,6.5702 0.4357,-2.2267 -0.0142,-3.7163 1.8586,-5.8629 1.3819,-1.584 3.4504,-1.736 5.69,-0.8737 1.8998,0.7314 3.424,1.891 4.7472,2.9719 1.5698,1.2824 2.6391,2.6801 3.8707,3.7754 0.4315,-1.9352 0.3799,-3.3429 1.6059,-5.0541 4.2573,-5.9426 13.9453,0.7066 17.488,4.2389 1.5698,1.565 3.4509,3.4274 4.828,5.0819 0.5221,0.6273 0.7472,1.387 1.6472,1.5818 1.5015,0.3248 4.1238,1.0437 5.4972,1.1477 -0.1499,-0.5814 -0.8257,-1.1429 -1.2209,-1.6239 -1.3124,-1.5974 -2.4043,-2.9118 -3.3168,-4.8592 -1.279,-2.7292 -0.7075,-6.512 2.1439,-7.3111 3.9611,-1.1101 11.3967,6.8817 13.0079,8.4685 l -0.4031,1.8791 c -1.3017,-0.3714 -4.2798,-4.055 -7.1365,-4.7764 -2.4282,-0.6131 -4.3158,1.531 0.2018,6.3663 0.8929,0.9556 2.2102,1.8233 3.1283,2.8642 1.1254,1.2755 1.2614,2.6376 0.2787,4.3061 -0.9641,1.6367 -1.5268,1.4093 -4.5451,1.0017 -1.4811,-0.2001 -3.7023,-0.6675 -5.1778,-0.7058 0.0964,0.7509 0.6628,1.6381 0.0292,2.2224 -1.4522,1.3396 -6.4607,-3.2874 -7.4885,-5.9383 -1.3578,-3.5017 0.7537,-3.3957 1.0902,-3.6562 -1.495,-2.539 -4.9615,-5.0054 -7.5889,-6.3275 -1.5954,-0.8024 -3.3271,-1.5944 -5.5061,-1.3827 -2.1104,0.2052 -3.4642,1.6628 -2.6937,4.0552" /><path
       id="path14"
       style="fill:#000000;fill-opacity:1;fill-rule:evenodd;stroke:none"
       d="m 66.4277,81.3849 c 0.174,0.5542 0.7251,0.876 1.402,1.4066 0.4983,0.3906 0.9961,0.7722 1.4612,1.1701 4.4334,3.7951 10.2002,8.1471 14.7966,11.9665 0.8887,0.7384 5.2724,4.4532 5.997,4.659 C 89.9991,100.0071 79.2351,82.4306 79.1048,82.3331 78.3374,82.0165 67.909,81.3365 66.4277,81.3849 Z m 21.5968,1.1427 c 0.3266,1.0366 2.0401,3.651 2.6839,4.7931 l 5.3847,9.2307 c 1.2515,2.1345 5.006,7.5291 4.367,10.0367 -0.523,2.0525 -2.1027,2.9795 -4.5249,2.1163 C 89.6981,106.4826 76.2897,95.3218 70.4293,90.5366 68.2095,88.7241 60.4077,82.1982 58.3716,80.763 c -0.847,-0.5972 -5.5947,-0.5958 -6.393,-0.2029 -0.1094,1.4609 1.5049,1.3779 2.7669,1.5324 1.0803,0.1321 2.7941,0.1624 3.0691,1.1211 -1.0338,1.2702 -6.4491,-0.2931 -7.8202,-0.8195 -2.0724,-0.7954 -4.3541,-2.5858 -5.6529,-3.8566 -9.4992,-9.2919 -0.39,-6.8349 3.534,-7.1555 -0.4782,-0.7877 -5.9335,-6.7495 -6.7105,-7.0798 -3.7451,-1.5911 -5.8447,-2.9996 -8.3287,-5.2871 -9.4488,-8.701 -3.5677,-10.5702 0.3089,-8.3617 2.8826,1.6421 8.0054,7.1861 10.641,9.7209 l 10.3802,10.1432 c 0.8753,0.828 0.7858,1.0131 2.4035,1.0321 3.2335,0.038 14.7555,0.625 16.393,0.449 -0.6593,-2.7043 -6.6665,-10.0505 -5.7722,-14.7688 0.3654,-1.9278 1.4313,-3.238 3.4359,-3.4883 5.8034,-0.7243 14.8125,7.7576 17.119,10.2835 l -1.315,1.914 c -0.7568,-0.2999 -3.4509,-2.4089 -4.3033,-3.0283 -3.2371,-2.3525 -4.7406,-0.9782 -4.3134,0.345 l 2.5412,4.8725 c 0.7401,1.4068 1.9199,3.3375 2.4432,4.71 l 6.6152,0.3852 c 0.7121,1.4803 5.1032,8.4722 5.9794,8.892 -2.2612,0.8921 -4.8195,0.4714 -7.3684,0.4122" /><path
       id="path16"
       style="fill:#000000;fill-opacity:1;fill-rule:evenodd;stroke:none"
       d="m 177.4159,52.0532 c 1.6949,0.4544 1.7224,-1.5129 1.7192,-2.812 -0.003,-1.546 0.2246,-3.1788 -1.2101,-3.5147 -1.5284,-0.358 -1.7858,1.4292 -1.826,2.823 -0.0423,1.4675 0.0983,3.1765 1.3169,3.5037 z m 1.6779,0.8022 c -3.6811,0.7319 -5.6577,-0.8448 -5.5857,-4.5394 0.0329,-1.6878 0.4986,-3.0827 1.6645,-3.6335 2.0117,-0.9499 3.2913,0.5465 4.0711,0.8609 l -0.0595,-1.1092 3.3213,0.1979 c -0.0382,1.3484 -0.8926,-0.4955 -0.9206,2.3 -0.023,2.2575 -0.1171,8.0671 0.0209,9.6908 -0.9377,-0.0261 -2.5979,0.0431 -3.4446,-0.1692 0.008,-1.179 0.7177,-0.1185 0.9192,-1.3896 0.0791,-0.4992 0.0882,-1.7152 0.0134,-2.2087" /><path
       id="path18"
       style="fill:#000000;fill-opacity:1;fill-rule:evenodd;stroke:none"
       d="m 142.1538,53.0427 c 0.4859,1.6195 0.4966,1.9849 2.4556,1.9432 l 0.0261,-8.5142 c -0.0292,-2.0537 -0.974,-0.6043 -1.0057,-1.8396 0.1414,-0.0811 -0.0493,-0.0292 0.2772,-0.099 0.1247,-0.0266 0.1967,-0.0292 0.324,-0.0357 0.1664,-0.0082 0.4071,0.006 0.582,0.0082 0.3844,0.0049 0.7687,0.0026 1.1531,0.0026 0.775,0 1.5494,-0.0043 2.3239,-3e-4 0.0178,1.4088 -0.9494,-0.0694 -1.0086,1.8476 l 0.008,8.5867 c 1.7518,0.3442 2.1362,-0.5224 2.4523,-1.9014 l 1.1951,-0.0032 -0.0114,2.9971 -9.9354,0.0043 0.0207,-3.0076 1.1432,0.0113 z" /><path
       id="path20"
       style="fill:#000000;fill-opacity:1;fill-rule:evenodd;stroke:none"
       d="m 186.4757,47.628 c -0.1632,1.2421 -0.1289,3.4773 0.6874,4.2029 0.9318,0.828 2.1204,0.0768 2.3435,-2.0282 0.4824,-4.5504 -1.4403,-5.1273 -2.4166,-4.0269 -0.4249,0.4791 -0.5233,1.1586 -0.6143,1.8522 z m 5.6268,0.3458 c 0.4167,2.7528 -0.8546,4.7685 -3.2899,5.0358 -2.7723,0.3041 -4.6275,-0.9635 -4.924,-3.426 -0.3359,-2.7898 0.6894,-4.9175 3.3358,-5.1613 2.8959,-0.2667 4.4889,0.9808 4.8781,3.5515" /><path
       id="path22"
       style="fill:#000000;fill-opacity:1;fill-rule:evenodd;stroke:none"
       d="m 153.309,49.5964 c -6e-4,3.1317 2.8341,3.6629 2.7261,-0.0139 z m 4.4178,-2.7913 c -0.7348,-0.4507 -1.4871,-1.5505 -3.1,-1.0086 -1.1908,0.4003 -1.3326,1.6495 -1.387,2.854 l 5.3688,0.0493 c -0.1791,2.4142 -0.7636,4.151 -3.1929,4.331 -5.8385,0.432 -5.7062,-7.033 -2.5611,-8.3075 0.9184,-0.3722 2.2793,-0.4521 3.3006,-0.1321 0.8258,0.2586 1.8366,0.8898 2.1572,1.5446 z" /><path
       id="path24"
       style="fill:#000000;fill-opacity:1;fill-rule:evenodd;stroke:none"
       d="m 193.5541,44.8625 c 0.629,-0.3725 5.5015,-1.3668 6.4222,1.2909 0.2489,0.7186 0.1341,1.6659 -0.2667,2.2133 -0.8343,1.1393 -3.1028,1.5253 -3.4951,2.2711 -0.7365,1.3992 1.7787,2.4276 2.6509,0.222 l 1.1532,-0.0122 -0.0154,1.9426 c -1.5939,0.252 -3.6572,0.5278 -5.0462,-0.237 -1.3558,-0.7464 -1.7566,-2.361 -0.491,-3.5512 0.9023,-0.8485 3.2537,-1.2082 3.2846,-2.526 0.0331,-1.4165 -2.3239,-1.8689 -3.0612,0.3356 l -1.148,0.0085 z" /><path
       id="path26"
       style="fill:#000000;fill-opacity:1;fill-rule:evenodd;stroke:none"
       d="m 164.2453,88.994 c -5.2866,-0.9791 -5.6256,-6.933 -1.6954,-6.5574 1.6883,0.1613 3.0915,1.7385 3.6732,3.0138 0.8495,1.8624 0.4697,3.9968 -1.9778,3.5436" /><path
       id="path28"
       style="fill:#000000;fill-opacity:1;fill-rule:evenodd;stroke:none"
       d="m 166.5207,46.6387 c -0.756,-0.1908 -1.4443,-1.4556 -2.8636,-0.796 -0.8892,0.413 -1.0715,1.7005 -1.0987,2.7046 -0.1224,4.4847 2.4441,4.3293 2.617,2.0622 l 1.7322,0.0382 -0.005,2.0214 c -3.9866,1.2323 -7.1867,-0.3529 -6.9106,-4.5842 0.3181,-4.8699 5.542,-4.1697 7.001,-2.1653 l -0.4725,0.7191 z" /><path
       id="path30"
       style="fill:#000000;fill-opacity:1;fill-rule:evenodd;stroke:none"
       d="m 168.3686,52.1711 c 0.3453,-0.1936 0.4028,-0.4201 0.438,-0.8476 l -0.004,-5.0873 c -0.0896,-1.59 -0.834,-0.4275 -0.8008,-1.7221 l 4.1213,-0.0022 c -0.0261,1.3059 -0.6928,0.1723 -0.8184,1.6129 l -0.019,6.9381 -3.4038,-0.1514 c 0.009,-0.8067 -0.0953,-0.4139 0.4867,-0.7404" /><path
       id="path32"
       style="fill:#000000;fill-opacity:1;fill-rule:evenodd;stroke:none"
       d="m 168.878,54.1877 h 2.3397 l -0.001,2.0851 -2.3298,-5e-4 -0.009,-2.0846 z" /></g></svg>